# xmcd CD database file
#
# Track frame offsets:
#	150
#	3267
#	20664
#	38933
#	58880
#	79325
#	107467
#	137143
#	153166
#	171924
#	191507
#	210215
#	236447
#	255486
#
# Disc length: 3793 seconds
#
# Revision: 1
# Processed by: cddbd v1.5.2PL0 Copyright (c) Steve Scherf et al.
# Submitted via: CDex 1.60beta1-cs1
#
DISCID=ae0ecf0e
DTITLE=LUIZ CARVALHO - LUIZ CARVALHO E COMUNIDADE RECADO (AO VIVO)
DYEAR=2006
DGENRE=CATOLICA
TTITLE0=Abertura
TTITLE1=Louvar e Agradecer
TTITLE2=Manifestai vossa alegria
TTITLE3=Princípio e fim
TTITLE4=Coração Sagrado
TTITLE5=Sangue Redentor
TTITLE6=Te elegi
TTITLE7=Viva a vida
TTITLE8=Um tal Jesus
TTITLE9=A riqueza de um amigo
TTITLE10=Adoração e glória
TTITLE11=Amor infinito
TTITLE12=Estar em tua presença
TTITLE13=Pout pourri de forrós
EXTD=YEAR: 2006
EXTT0=
EXTT1=
EXTT2=
EXTT3=
EXTT4=
EXTT5=
EXTT6=
EXTT7=
EXTT8=
EXTT9=
EXTT10=
EXTT11=
EXTT12=
EXTT13=
PLAYORDER=
